<svg width="12" height="12" viewBox="0 0 12 12" fill="none" xmlns="http://www.w3.org/2000/svg">
  <path d="M1.60049 8.563C1.52708 8.49117 1.49141 8.40854 1.49349 8.31512C1.49558 8.22171 1.53137 8.14021 1.60087 8.07062L4.09224 5.55675C4.25424 5.392 4.45462 5.30962 4.69337 5.30962C4.93204 5.30962 5.13458 5.392 5.30099 5.55675L6.55549 6.81975C6.58433 6.84858 6.61958 6.863 6.66124 6.863C6.70291 6.863 6.73974 6.84858 6.77174 6.81975L9.47262 4.15725H8.33075C8.23366 4.15725 8.15091 4.12342 8.08249 4.05575C8.01399 3.98817 7.97974 3.90579 7.97974 3.80862C7.97974 3.71154 8.01399 3.62879 8.08249 3.56037C8.15091 3.49196 8.23366 3.45775 8.33075 3.45775H10.2235C10.3412 3.45775 10.4416 3.49917 10.5246 3.582C10.6075 3.66483 10.649 3.76604 10.649 3.88562V5.77837C10.649 5.87546 10.6146 5.95783 10.5459 6.0255C10.477 6.09308 10.3948 6.12687 10.2992 6.12687C10.2037 6.12687 10.1215 6.09387 10.0527 6.02787C9.98391 5.96187 9.9495 5.88029 9.9495 5.78312V4.64375L7.26587 7.32737C7.10345 7.49054 6.90262 7.57212 6.66337 7.57212C6.42404 7.57212 6.22358 7.49054 6.06199 7.32737L4.80674 6.0745C4.77791 6.04567 4.74104 6.03125 4.69612 6.03125C4.65129 6.03125 4.61445 6.04567 4.58562 6.0745L2.09712 8.55912C2.0247 8.62996 1.94154 8.66537 1.84762 8.66537C1.7537 8.66537 1.67133 8.63125 1.60049 8.563Z" fill="#D42B2B"/>
</svg>
