<svg width="379" height="56" viewBox="0 0 379 56" fill="none" xmlns="http://www.w3.org/2000/svg">
<g filter="url(#filter0_d_1025_2536)">
<path d="M4 27C4 13.7452 14.7452 3 28 3H351C364.255 3 375 13.7452 375 27C375 40.2548 364.255 51 351 51H28C14.7452 51 4 40.2548 4 27Z" fill="white" shape-rendering="crispEdges"/>
<path d="M28 3.5H351C363.979 3.5 374.5 14.0213 374.5 27C374.5 39.9787 363.979 50.5 351 50.5H28C15.0213 50.5 4.5 39.9787 4.5 27C4.5 14.0213 15.0213 3.5 28 3.5Z" stroke="#EB3B0C" shape-rendering="crispEdges"/>
<path d="M26.741 31.6589C24.5108 31.6589 22.6248 30.8875 21.083 29.3446C19.5414 27.8019 18.7707 25.9186 18.7707 23.6946C18.7707 21.4708 19.5409 19.5872 21.0813 18.0436C22.6215 16.5001 24.5048 15.7283 26.731 15.7283C28.9572 15.7283 30.8422 16.5002 32.386 18.0439C33.9296 19.5877 34.7013 21.4724 34.7013 23.6979C34.7013 24.6293 34.5449 25.5265 34.232 26.3896C33.9191 27.2529 33.5016 28.0003 32.9793 28.6316L40.591 36.2253C40.7688 36.4024 40.8598 36.6194 40.864 36.8763C40.8682 37.1332 40.7749 37.3561 40.584 37.5449C40.3929 37.7338 40.1721 37.8283 39.9217 37.8283C39.6712 37.8283 39.453 37.7353 39.267 37.5493L31.6627 29.9369C31.002 30.4874 30.2418 30.9121 29.382 31.2109C28.5222 31.5096 27.6419 31.6589 26.741 31.6589ZM26.736 29.7936C28.4427 29.7936 29.886 29.2045 31.066 28.0263C32.246 26.8478 32.836 25.4034 32.836 23.6929C32.836 21.9823 32.246 20.5381 31.066 19.3603C29.886 18.1825 28.4416 17.5936 26.7327 17.5936C25.0238 17.5936 23.5804 18.1827 22.4027 19.3609C21.2249 20.5392 20.636 21.9836 20.636 23.6943C20.636 25.4049 21.225 26.8492 22.403 28.0269C23.5812 29.2047 25.0255 29.7936 26.736 29.7936Z" fill="#B6B0AC"/>
<path d="M55.296 33V27.4C55.296 26.3227 55.584 25.5013 56.16 24.936C56.736 24.36 57.6533 24.072 58.912 24.072C60.1813 24.072 61.0987 24.36 61.664 24.936C62.24 25.5013 62.528 26.3227 62.528 27.4V33H61.104V27.4C61.104 26.6853 60.9173 26.152 60.544 25.8C60.1707 25.4373 59.6213 25.256 58.896 25.256C58.1813 25.256 57.6373 25.4373 57.264 25.8C56.9013 26.152 56.72 26.6853 56.72 27.4V29.176L56.768 29.192C57.0027 28.776 57.2907 28.504 57.632 28.376C57.9733 28.2373 58.4533 28.168 59.072 28.168H59.6V29.336H59.072C58.4213 29.336 57.9253 29.4267 57.584 29.608C57.2533 29.7893 57.024 30.0293 56.896 30.328C56.7787 30.616 56.72 30.9413 56.72 31.304V33H55.296ZM57.8932 22.84V22.136C58.1066 22.0933 58.3252 22.0347 58.5492 21.96C58.7732 21.8747 58.9599 21.768 59.1092 21.64C59.2586 21.5013 59.3332 21.336 59.3332 21.144C59.3332 21.016 59.2959 20.9093 59.2212 20.824C59.1359 20.728 59.0079 20.68 58.8372 20.68C58.7306 20.68 58.6239 20.7013 58.5172 20.744C58.3999 20.7867 58.2986 20.824 58.2132 20.856L57.8932 19.976C58.1066 19.8053 58.3466 19.6933 58.6132 19.64C58.8692 19.5867 59.0772 19.56 59.2372 19.56C59.6639 19.56 59.9999 19.6773 60.2452 19.912C60.4799 20.1467 60.5972 20.4453 60.5972 20.808C60.5972 21.1067 60.5226 21.368 60.3732 21.592C60.2132 21.8053 60.0319 21.976 59.8292 22.104L59.6693 21.72H62.8532V22.84H57.8932ZM68.1481 33.16C67.5188 33.16 66.9748 33.0533 66.5161 32.84C66.0681 32.616 65.7215 32.28 65.4761 31.832C65.2415 31.384 65.1241 30.8027 65.1241 30.088V24.232H66.5481V30.008C66.5481 30.648 66.7081 31.1333 67.0281 31.464C67.3588 31.7947 67.8335 31.96 68.4521 31.96C69.1988 31.96 69.7748 31.72 70.1801 31.24C70.5961 30.76 70.8041 30.1147 70.8041 29.304V24.232H72.2281V33H71.0441L70.9801 31.704H70.9001C70.7081 32.1307 70.3721 32.4827 69.8921 32.76C69.4228 33.0267 68.8415 33.16 68.1481 33.16ZM75.0646 33V24.232H76.4886V28.024H76.5366L80.1846 24.232H81.8486V24.28L76.4886 29.704V33H75.0646ZM80.5046 33V29.912C80.5046 29.2827 80.3126 28.792 79.9286 28.44C79.5446 28.088 78.91 27.912 78.0246 27.912L78.8566 26.872C79.5286 26.872 80.0886 26.9947 80.5366 27.24C80.9953 27.4747 81.342 27.816 81.5766 28.264C81.8113 28.712 81.9286 29.2507 81.9286 29.88V33H80.5046ZM86.8073 33V26.776C86.8073 26.2533 86.6846 25.8693 86.4393 25.624C86.2046 25.3787 85.8046 25.256 85.2393 25.256C84.8553 25.256 84.4926 25.3093 84.1513 25.416C83.8206 25.512 83.5006 25.6507 83.1913 25.832V24.552C83.4046 24.4453 83.7086 24.3387 84.1033 24.232C84.4979 24.1253 84.9673 24.072 85.5113 24.072C86.0659 24.072 86.5459 24.152 86.9513 24.312C87.3566 24.472 87.6713 24.7387 87.8953 25.112C88.1193 25.4747 88.2313 25.96 88.2313 26.568V33H86.8073ZM95.9633 33V27.16C95.9633 26.4667 95.8033 25.976 95.4833 25.688C95.1739 25.3893 94.6513 25.24 93.9153 25.24C93.3819 25.24 92.8699 25.3147 92.3793 25.464C91.8993 25.6027 91.4406 25.8 91.0033 26.056V24.728C91.3126 24.568 91.7286 24.4187 92.2513 24.28C92.7846 24.1413 93.3819 24.072 94.0433 24.072C94.6086 24.072 95.0886 24.136 95.4833 24.264C95.8886 24.392 96.1873 24.6267 96.3793 24.968C96.7526 25.1387 97.0086 25.4053 97.1473 25.768C97.2966 26.1307 97.3713 26.568 97.3713 27.08V33H95.9633ZM93.2113 33.16C92.2726 33.16 91.5526 32.9467 91.0513 32.52C90.5606 32.0827 90.3153 31.4587 90.3153 30.648C90.3153 29.7627 90.6353 29.08 91.2753 28.6C91.9259 28.12 92.9766 27.8373 94.4273 27.752L96.2513 27.64V28.824L94.6193 28.936C93.5313 29.0107 92.7793 29.1813 92.3633 29.448C91.9579 29.7147 91.7553 30.104 91.7553 30.616C91.7553 31.096 91.9046 31.448 92.2033 31.672C92.5126 31.896 92.9393 32.008 93.4833 32.008C93.6646 32.008 93.8299 31.9973 93.9793 31.976C94.1286 31.944 94.2726 31.9067 94.4113 31.864L94.6353 32.936C94.4326 33.0107 94.2086 33.064 93.9633 33.096C93.7286 33.1387 93.4779 33.16 93.2113 33.16ZM96.3313 25.464L95.5313 24.712C95.8086 24.6693 96.0699 24.5627 96.3153 24.392C96.5606 24.2213 96.6833 23.976 96.6833 23.656H98.0753C98.0753 23.9867 97.9953 24.28 97.8353 24.536C97.6859 24.7813 97.4779 24.984 97.2113 25.144C96.9446 25.2933 96.6513 25.4 96.3313 25.464ZM90.5729 22.84V22.216L91.7409 21.704H97.3729V22.84H90.5729ZM103.008 33.16C102.378 33.16 101.834 33.0533 101.376 32.84C100.928 32.616 100.581 32.28 100.336 31.832C100.101 31.384 99.9835 30.8027 99.9835 30.088V24.232H101.408V30.008C101.408 30.648 101.568 31.1333 101.888 31.464C102.218 31.7947 102.693 31.96 103.312 31.96C104.058 31.96 104.634 31.72 105.04 31.24C105.456 30.76 105.664 30.1147 105.664 29.304V24.232H107.088V33H105.904L105.84 31.704H105.76C105.568 32.1307 105.232 32.4827 104.752 32.76C104.282 33.0267 103.701 33.16 103.008 33.16ZM109.796 33V27.4C109.796 26.3227 110.084 25.5013 110.66 24.936C111.236 24.36 112.153 24.072 113.412 24.072C114.681 24.072 115.599 24.36 116.164 24.936C116.74 25.5013 117.028 26.3227 117.028 27.4V33H115.604V27.4C115.604 26.6853 115.417 26.152 115.044 25.8C114.671 25.4373 114.121 25.256 113.396 25.256C112.681 25.256 112.137 25.4373 111.764 25.8C111.401 26.152 111.22 26.6853 111.22 27.4V29.176L111.268 29.192C111.503 28.776 111.791 28.504 112.132 28.376C112.473 28.2373 112.953 28.168 113.572 28.168H114.1V29.336H113.572C112.921 29.336 112.425 29.4267 112.084 29.608C111.753 29.7893 111.524 30.0293 111.396 30.328C111.279 30.616 111.22 30.9413 111.22 31.304V33H109.796ZM112.393 22.84V22.136C112.607 22.0933 112.825 22.0347 113.049 21.96C113.273 21.8747 113.46 21.768 113.609 21.64C113.759 21.5013 113.833 21.336 113.833 21.144C113.833 21.016 113.796 20.9093 113.721 20.824C113.636 20.728 113.508 20.68 113.337 20.68C113.231 20.68 113.124 20.7013 113.017 20.744C112.9 20.7867 112.799 20.824 112.713 20.856L112.393 19.976C112.607 19.8053 112.847 19.6933 113.113 19.64C113.369 19.5867 113.577 19.56 113.737 19.56C114.164 19.56 114.5 19.6773 114.745 19.912C114.98 20.1467 115.097 20.4453 115.097 20.808C115.097 21.1067 115.023 21.368 114.873 21.592C114.713 21.8053 114.532 21.976 114.329 22.104L114.169 21.72H117.353V22.84H112.393ZM122.104 33V26.776C122.104 26.2533 121.981 25.8693 121.736 25.624C121.501 25.3787 121.101 25.256 120.536 25.256C120.152 25.256 119.789 25.3093 119.448 25.416C119.117 25.512 118.797 25.6507 118.488 25.832V24.552C118.701 24.4453 119.005 24.3387 119.4 24.232C119.795 24.1253 120.264 24.072 120.808 24.072C121.363 24.072 121.843 24.152 122.248 24.312C122.653 24.472 122.968 24.7387 123.192 25.112C123.416 25.4747 123.528 25.96 123.528 26.568V33H122.104Z" fill="#B6B0AC"/>
<path d="M324 32.0145C325.126 32.0145 326.078 31.6256 326.858 30.8478C327.637 30.0701 328.027 29.1167 328.027 27.9875C328.027 26.865 327.637 25.9141 326.858 25.1348C326.078 24.3553 325.126 23.9655 324 23.9655C322.874 23.9655 321.923 24.3553 321.145 25.1348C320.367 25.9141 319.978 26.865 319.978 27.9875C319.978 29.1167 320.367 30.0701 321.145 30.8478C321.923 31.6256 322.874 32.0145 324 32.0145ZM323.996 30.6155C323.254 30.6155 322.632 30.3634 322.13 29.8593C321.628 29.3551 321.377 28.7329 321.377 27.9925C321.377 27.2524 321.628 26.6293 322.13 26.1233C322.632 25.6174 323.255 25.3645 323.997 25.3645C324.74 25.3645 325.364 25.6174 325.87 26.1233C326.375 26.6293 326.628 27.2524 326.628 27.9925C326.628 28.7329 326.375 29.3551 325.869 29.8593C325.363 30.3634 324.739 30.6155 323.996 30.6155ZM316.407 35.298C315.934 35.298 315.532 35.1321 315.2 34.8003C314.868 34.4683 314.702 34.0658 314.702 33.5928V22.3948C314.702 21.9218 314.868 21.5193 315.2 21.1873C315.532 20.8554 315.935 20.6895 316.409 20.6895H319.463L320.763 19.2645C320.917 19.0882 321.105 18.9504 321.327 18.851C321.548 18.7517 321.783 18.702 322.033 18.702H325.972C326.218 18.702 326.451 18.7517 326.673 18.851C326.895 18.9504 327.084 19.0882 327.242 19.2645L328.538 20.6895H331.591C332.065 20.6895 332.468 20.8554 332.8 21.1873C333.132 21.5193 333.298 21.9218 333.298 22.3948V33.5928C333.298 34.0658 333.132 34.4683 332.8 34.8003C332.468 35.1321 332.066 35.298 331.594 35.298H316.407ZM316.409 33.899H331.591C331.681 33.899 331.755 33.8702 331.813 33.8125C331.87 33.7549 331.899 33.6811 331.899 33.5913V22.3963C331.899 22.3096 331.87 22.2367 331.813 22.1775C331.755 22.1182 331.681 22.0885 331.591 22.0885H327.917L326.105 20.101H321.902L320.091 22.0885H316.409C316.319 22.0885 316.245 22.1182 316.188 22.1775C316.13 22.2367 316.101 22.3096 316.101 22.3963V33.5913C316.101 33.6811 316.13 33.7549 316.188 33.8125C316.245 33.8702 316.319 33.899 316.409 33.899Z" fill="#B6B0AC"/>
<path d="M351.313 27.697C350.852 27.2292 350.621 26.6635 350.621 26V20.0808C350.621 19.4173 350.852 18.8549 351.313 18.3938C351.774 17.9326 352.337 17.702 353 17.702C353.664 17.702 354.226 17.9326 354.687 18.3938C355.148 18.8549 355.379 19.4173 355.379 20.0808V26C355.379 26.6635 355.148 27.2292 354.687 27.697C354.226 28.165 353.664 28.399 353 28.399C352.337 28.399 351.774 28.165 351.313 27.697ZM352.303 34.8865V32.3C350.833 32.1449 349.575 31.5463 348.53 30.5043C347.485 29.4623 346.878 28.199 346.71 26.7145C346.683 26.5202 346.734 26.3525 346.865 26.2115C346.995 26.0705 347.161 26 347.364 26C347.555 26 347.718 26.0679 347.855 26.2038C347.992 26.3398 348.082 26.5074 348.124 26.7068C348.298 27.9259 348.849 28.9362 349.778 29.7375C350.706 30.5389 351.78 30.9395 353 30.9395C354.24 30.9395 355.319 30.5359 356.238 29.7288C357.156 28.9218 357.704 27.9144 357.881 26.7068C357.92 26.5074 358.008 26.3398 358.145 26.2038C358.282 26.0679 358.447 26 358.641 26C358.841 26 359.005 26.0705 359.136 26.2115C359.266 26.3525 359.319 26.5202 359.295 26.7145C359.123 28.174 358.519 29.4286 357.482 30.4783C356.445 31.5279 355.185 32.1352 353.702 32.3V34.8865C353.702 35.0809 353.634 35.2464 353.497 35.3833C353.36 35.5201 353.194 35.5885 353 35.5885C352.806 35.5885 352.641 35.5201 352.506 35.3833C352.371 35.2464 352.303 35.0809 352.303 34.8865ZM353.696 26.7125C353.885 26.5209 353.98 26.2834 353.98 26V20.0808C353.98 19.8058 353.885 19.5737 353.696 19.3845C353.507 19.1955 353.275 19.101 353 19.101C352.725 19.101 352.493 19.1955 352.304 19.3845C352.115 19.5737 352.02 19.8058 352.02 20.0808V26C352.02 26.2834 352.115 26.5209 352.304 26.7125C352.493 26.9042 352.725 27 353 27C353.275 27 353.507 26.9042 353.696 26.7125Z" fill="#B6B0AC"/>
</g>
<defs>
<filter id="filter0_d_1025_2536" x="0" y="0" width="379" height="56" filterUnits="userSpaceOnUse" color-interpolation-filters="sRGB">
<feFlood flood-opacity="0" result="BackgroundImageFix"/>
<feColorMatrix in="SourceAlpha" type="matrix" values="0 0 0 0 0 0 0 0 0 0 0 0 0 0 0 0 0 0 127 0" result="hardAlpha"/>
<feOffset dy="1"/>
<feGaussianBlur stdDeviation="2"/>
<feComposite in2="hardAlpha" operator="out"/>
<feColorMatrix type="matrix" values="0 0 0 0 0.0470588 0 0 0 0 0.0470588 0 0 0 0 0.0509804 0 0 0 0.05 0"/>
<feBlend mode="normal" in2="BackgroundImageFix" result="effect1_dropShadow_1025_2536"/>
<feBlend mode="normal" in="SourceGraphic" in2="effect1_dropShadow_1025_2536" result="shape"/>
</filter>
</defs>
</svg>
