<svg width="38" height="38" viewBox="0 0 38 38" fill="none" xmlns="http://www.w3.org/2000/svg">
<rect width="38" height="38" rx="11" fill="#FEF7F5"/>
<path d="M16 25H22C22.2833 25 22.5208 24.9042 22.7125 24.7125C22.9042 24.5208 23 24.2833 23 24C23 23.7167 22.9042 23.4792 22.7125 23.2875C22.5208 23.0958 22.2833 23 22 23H16C15.7167 23 15.4792 23.0958 15.2875 23.2875C15.0958 23.4792 15 23.7167 15 24C15 24.2833 15.0958 24.5208 15.2875 24.7125C15.4792 24.9042 15.7167 25 16 25ZM16 21H22C22.2833 21 22.5208 20.9042 22.7125 20.7125C22.9042 20.5208 23 20.2833 23 20C23 19.7167 22.9042 19.4792 22.7125 19.2875C22.5208 19.0958 22.2833 19 22 19H16C15.7167 19 15.4792 19.0958 15.2875 19.2875C15.0958 19.4792 15 19.7167 15 20C15 20.2833 15.0958 20.5208 15.2875 20.7125C15.4792 20.9042 15.7167 21 16 21ZM13 29C12.45 29 11.9792 28.8042 11.5875 28.4125C11.1958 28.0208 11 27.55 11 27V11C11 10.45 11.1958 9.97917 11.5875 9.5875C11.9792 9.19583 12.45 9 13 9H20.175C20.4417 9 20.6958 9.05 20.9375 9.15C21.1792 9.25 21.3917 9.39167 21.575 9.575L26.425 14.425C26.6083 14.6083 26.75 14.8208 26.85 15.0625C26.95 15.3042 27 15.5583 27 15.825V27C27 27.55 26.8042 28.0208 26.4125 28.4125C26.0208 28.8042 25.55 29 25 29H13ZM20 15C20 15.2833 20.0958 15.5208 20.2875 15.7125C20.4792 15.9042 20.7167 16 21 16H25L20 11V15Z" fill="#EB3B0C"/>
</svg>
