<svg width="32" height="32" viewBox="0 0 32 32" fill="none" xmlns="http://www.w3.org/2000/svg">
<rect x="0.666687" width="31.3333" height="32" rx="15.6667" fill="#FF3A13"/>
<path d="M10.5812 20.7094C10.4089 20.7094 10.2618 20.6486 10.1401 20.5268C10.0183 20.4049 9.9574 20.2584 9.9574 20.0874C9.9574 19.9163 10.0183 19.77 10.1401 19.6483C10.2618 19.5267 10.4089 19.4659 10.5812 19.4659H13.9607C14.1332 19.4659 14.2803 19.5269 14.4021 19.6488C14.5238 19.7706 14.5847 19.917 14.5847 20.0881C14.5847 20.2591 14.5238 20.4054 14.4021 20.527C14.2803 20.6486 14.1332 20.7094 13.9607 20.7094H10.5812ZM10.5812 16.7094C10.4089 16.7094 10.2618 16.6492 10.1401 16.5288C10.0183 16.4083 9.9574 16.2619 9.9574 16.0894C9.9574 15.917 10.0183 15.77 10.1401 15.6483C10.2618 15.5267 10.4089 15.4659 10.5812 15.4659H19.0265C19.196 15.4659 19.3417 15.5269 19.4636 15.6488C19.5854 15.7706 19.6463 15.9177 19.6463 16.0901C19.6463 16.2626 19.5854 16.4089 19.4636 16.5292C19.3417 16.6494 19.196 16.7094 19.0265 16.7094H10.5812ZM10.5812 12.7139C10.4089 12.7139 10.2618 12.6529 10.1401 12.531C10.0183 12.4092 9.9574 12.2628 9.9574 12.0917C9.9574 11.9207 10.0183 11.7744 10.1401 11.6528C10.2618 11.5312 10.4089 11.4703 10.5812 11.4703H24.0898C24.2593 11.4703 24.405 11.5312 24.5267 11.653C24.6485 11.7748 24.7094 11.9212 24.7094 12.0923C24.7094 12.2633 24.6485 12.4096 24.5267 12.5312C24.405 12.653 24.2593 12.7139 24.0898 12.7139H10.5812Z" fill="white"/>
</svg>
